<?xml version="1.0" encoding="utf-8"?>
<!-- Generator: Adobe Illustrator 22.0.1, SVG Export Plug-In . SVG Version: 6.00 Build 0)  -->
<svg version="1.1" id="Layer_1" xmlns="http://www.w3.org/2000/svg" xmlns:xlink="http://www.w3.org/1999/xlink" x="0px" y="0px"
	 viewBox="0 0 188.8 189.5" style="enable-background:new 0 0 188.8 189.5;" xml:space="preserve">
<style type="text/css">
	.st0{fill:#FFFFFF;}
	.st1{fill:#212322;}
	.st2{fill:#C04C36;}
	.st3{fill:#9B7A6A;}
</style>
<g>
	<path class="st0" d="M146.8,98.6c4.6,6.1,4.1,8.6,4.1,8.6v8.8h27v-8.8c0,0-0.5-2.5,4.1-8.6s5.5-9.2,5.5-11.8V5.4c0,0,0-3.4-2.8-3.4
		h-40.5c-2.8,0-2.8,3.4-2.8,3.4v81.4C141.4,89.3,142.2,92.5,146.8,98.6z"/>
	<path class="st1" d="M145.6,99.5c3.6,4.7,3.8,7,3.8,7.3c0,0.1,0,0.1,0,0.3v3.3H149c-0.9,0-1.6,0.7-1.6,1.6l0,0v13.2
		c0,0.9,0.4,1.8,1,2.4c0.8,0.7,1.8,1,2.8,1h26.5c1,0,2-0.3,2.8-1c0.6-0.6,1-1.5,1-2.4V112c0-0.9-0.7-1.6-1.6-1.6l0,0h-0.4v-3.3
		c0-0.2,0-0.2,0-0.3c0-0.4,0.2-2.6,3.8-7.3c5.1-6.7,5.8-10.1,5.8-12.8V5.3c0-2-1.2-5-4.4-5h-40.5c-3.2,0-4.4,3-4.4,5v81.4
		C139.8,89.4,140.5,92.8,145.6,99.5z M143,5.3c0-0.4,0.1-1.8,1.2-1.8h40.5c1.1,0,1.2,1.4,1.2,1.8v47.5H143L143,5.3L143,5.3z"/>
</g>
<g>
	<path class="st0" d="M98.1,42.6c6.1-4.6,8.6-4.1,8.6-4.1h8.8v-27h-8.8c0,0-2.5,0.5-8.6-4.1s-9.2-5.5-11.8-5.5H4.9
		c0,0-3.4,0-3.4,2.8v40.6c0,2.8,3.4,2.8,3.4,2.8h81.4C88.9,48.1,92,47.2,98.1,42.6z"/>
	<path class="st2" d="M86.3,48.1c2.6,0,5.7-0.8,11.8-5.5s8.6-4.1,8.6-4.1h8.8v-27h-8.8c0,0-2.5,0.5-8.6-4.1s-9.2-5.5-11.8-5.5H54V48
		h32.3C86.3,48,86.3,48.1,86.3,48.1z"/>
	<path class="st1" d="M99.1,43.9c4.7-3.6,7-3.8,7.3-3.8c0.1,0,0.1,0,0.3,0h3.3v0.4c0,0.9,0.7,1.6,1.6,1.6h13.2c0.9,0,1.8-0.3,2.4-1
		c0.1-0.1,0.2-0.3,0.3-0.4l0.1-0.1c0.1-0.1,0.1-0.2,0.2-0.3l0.1-0.2l0.1-0.2v-0.1l0.1-0.2v-0.2v-0.2V39v-0.2V11.3v-0.2v-0.2v-0.2
		v-0.2l-0.2-0.2l-0.1-0.2l-0.1-0.2l-0.1-0.2l-0.2-0.3l-0.1-0.1c-0.1-0.1-0.2-0.3-0.3-0.4l0,0c-0.6-0.6-1.5-1-2.4-1h-13.1
		c-0.9,0-1.6,0.7-1.6,1.6v0.4h-3.3c-0.2,0-0.2,0-0.3,0c-0.4,0-2.6-0.2-7.3-3.8C92.3,1,88.9,0.3,86.2,0.3H4.9c-2,0-5,1.2-5,4.4v40.6
		c0,3.2,3,4.4,5,4.4h81.4C89,49.7,92.4,49,99.1,43.9z M97.5,8.4c4.9,3.7,7.7,4.3,8.9,4.3c0.1,0,0.2,0,0.4,0h3.2v24.7h-3.2
		c-0.1,0-0.2,0-0.4,0c-1.2,0-4,0.6-8.9,4.3c-6.1,4.6-8.9,5.2-11.1,5.2h-31V3.1h31C88.5,3.2,91.4,3.8,97.5,8.4z M3.2,46.4
		c-0.4-0.3-0.6-0.7-0.6-1.2V4.8c0-0.5,0.2-0.9,0.6-1.2c0.5-0.3,1.1-0.5,1.6-0.5h47.7v43.7H4.9C4.3,46.9,3.7,46.8,3.2,46.4z"/>
</g>
<g>
	<path class="st0" d="M90.5,147.3c-6.1,4.6-8.6,4.1-8.6,4.1h-8.8v27h8.8c0,0,2.5-0.5,8.6,4.1c6.1,4.6,9.2,5.5,11.8,5.5h81.4
		c0,0,3.4,0,3.4-2.8v-40.6c0-2.8-3.4-2.8-3.4-2.8h-81.4C99.7,141.8,96.6,142.7,90.5,147.3z"/>
	<path class="st3" d="M102.3,141.8c-2.6,0-5.7,0.8-11.8,5.5s-8.6,4.1-8.6,4.1h-8.8v27h8.8c0,0,2.5-0.5,8.6,4.1
		c6.1,4.6,9.2,5.5,11.8,5.5h32.3v-46.1h-32.3C102.3,141.9,102.3,141.8,102.3,141.8z"/>
	<path class="st1" d="M89.5,146c-4.7,3.6-7,3.8-7.3,3.8c-0.1,0-0.1,0-0.3,0h-3.3v-0.4c0-0.9-0.7-1.6-1.6-1.6H63.8
		c-0.9,0-1.8,0.3-2.4,1c-0.1,0.1-0.2,0.3-0.3,0.4l-0.1,0.1c-0.1,0.1-0.1,0.2-0.2,0.3l-0.1,0.2l-0.1,0.2v0.1l-0.1,0.2v0.2v0.2v0.2
		v0.2v27.5v0.2v0.2v0.2v0.2l0.2,0.2l0.1,0.2l0.1,0.2l0.1,0.2l0.2,0.3l0.1,0.1c0.1,0.1,0.2,0.3,0.3,0.4l0,0c0.6,0.6,1.5,1,2.4,1h13.1
		c0.9,0,1.6-0.7,1.6-1.6V180H82c0.2,0,0.2,0,0.3,0c0.4,0,2.6,0.2,7.3,3.8c6.7,5.1,10.1,5.8,12.8,5.8h81.3c2,0,5-1.2,5-4.4v-40.6
		c0-3.2-3-4.4-5-4.4h-81.4C99.6,140.2,96.2,140.9,89.5,146z M91.1,181.5c-4.9-3.7-7.7-4.3-8.9-4.3c-0.1,0-0.2,0-0.4,0h-3.2v-24.7
		h3.2c0.1,0,0.2,0,0.4,0c1.2,0,4-0.6,8.9-4.3c6.1-4.6,8.9-5.2,11.1-5.2h31v43.8h-31C100.1,186.7,97.2,186.1,91.1,181.5z
		 M185.4,143.5c0.4,0.3,0.6,0.7,0.6,1.2v40.4c0,0.5-0.2,0.9-0.6,1.2c-0.5,0.3-1.1,0.5-1.6,0.5h-47.7v-43.7h47.6
		C184.3,143,184.9,143.1,185.4,143.5z"/>
</g>
<g>
	<path class="st0" d="M42.1,91.4c-4.6-6.1-4.1-8.6-4.1-8.6V74H11v8.8c0,0,0.5,2.5-4.1,8.6s-5.5,9.2-5.5,11.8v81.4c0,0,0,3.4,2.8,3.4
		h40.5c2.8,0,2.8-3.4,2.8-3.4v-81.4C47.5,100.7,46.7,97.5,42.1,91.4z"/>
	<g>
		<path class="st1" d="M43.7,90.3c-3.6-4.7-3.8-7-3.8-7.3c0-0.1,0-0.1,0-0.3v-3.3h0.4c0.9,0,1.6-0.7,1.6-1.6V64.6
			c0-0.9-0.3-1.8-1-2.4c-0.1-0.1-0.3-0.2-0.4-0.3l-0.1-0.1c-0.1-0.1-0.2-0.1-0.3-0.2l-0.2-0.1l-0.2-0.1h-0.1l-0.2-0.1H10.3l-0.2,0.2
			l-0.2,0.1l-0.2,0.1l-0.2,0.1L9.2,62l-0.1,0.1c-0.1,0.1-0.3,0.2-0.4,0.3c-0.6,0.6-1,1.5-1,2.4v13.1c0,0.9,0.7,1.6,1.6,1.6h0.4v3.3
			c0,0.2,0,0.2,0,0.3c0,0.4-0.2,2.6-3.8,7.3c-5.1,6.7-5.8,10.1-5.8,12.8v81.3c0,2,1.2,5,4.4,5h40.6c3.2,0,4.4-3,4.4-5v-81.4
			C49.5,100.4,48.8,97,43.7,90.3z M46.7,134L46.7,134C46.7,134,46.7,134,46.7,134c0,1-0.1,1.9-0.1,2.9c0,0,0,0,0,0h0v47.6
			c0.1,0.6,0,1.2-0.4,1.7c-0.3,0.4-0.7,0.6-1.2,0.6H4.6c-0.5,0-0.9-0.2-1.2-0.6c-0.3-0.5-0.5-1.1-0.5-1.6v-47.7h0V134h0v-31
			c0.1-2.1,0.7-5,5.3-11.1c3.7-4.9,4.3-7.7,4.3-8.9v-3.6h24.7V83c0,1.2,0.6,4,4.3,8.9c4.6,6.1,5.2,8.9,5.2,11.1V134z"/>
	</g>
</g>
</svg>
